<svg width="404" height="420" viewBox="0 0 404 420" fill="none" xmlns="http://www.w3.org/2000/svg">
<path d="M24.0613 418.219V403.026H13.7493V418.219H0V375.252H13.7493V390.445H24.0613V375.252H37.8107V418.219H24.0613Z" fill="white"/>
<path d="M46.4309 418.219V375.252H60.1802V418.219H46.4309Z" fill="white"/>
<path d="M90.7591 405.569V403.713H87.253V393.195H103.821V416.156C98.367 418.219 92.7298 419.25 86.9092 419.25C79.0721 419.25 73.687 417.348 70.7538 413.544C69.2413 411.573 68.1872 409.259 67.5914 406.6C66.9956 403.942 66.6977 400.665 66.6977 396.77C66.6977 392.828 66.9956 389.551 67.5914 386.939C68.2331 384.281 69.3559 381.966 70.96 379.995C73.9849 376.146 79.8283 374.221 88.4904 374.221C90.2778 374.221 92.5923 374.404 95.4338 374.771C98.3212 375.137 100.429 375.55 101.759 376.008L99.6961 386.526C95.9838 385.885 92.6152 385.564 89.5904 385.564C86.6113 385.564 84.5031 385.793 83.2657 386.251C82.0741 386.71 81.4783 387.626 81.4783 389.001V408.457H86.0155C87.6655 408.457 88.8571 408.296 89.5904 407.975C90.3695 407.609 90.7591 406.807 90.7591 405.569Z" fill="white"/>
<path d="M135.761 418.219V403.026H125.449V418.219H111.7V375.252H125.449V390.445H135.761V375.252H149.511V418.219H135.761Z" fill="white"/>
<path d="M185.629 418.219H158.131V375.252H171.88V407.219H185.629V418.219Z" fill="white"/>
<path d="M204.007 418.219H189.502L200.639 375.252H221.881L233.018 418.219H218.513L216.932 411.413H205.588L204.007 418.219ZM210.882 388.451L208.063 400.482H214.388L211.638 388.451H210.882Z" fill="white"/>
<path d="M283.505 418.219V375.252H302.754C310.5 375.252 315.816 376.902 318.704 380.202C321.591 383.502 323.035 389.024 323.035 396.77C323.035 404.469 321.591 409.969 318.704 413.269C315.816 416.569 310.5 418.219 302.754 418.219H283.505ZM302.961 386.251H297.255V407.219H302.961C304.84 407.219 306.192 407.013 307.017 406.6C307.888 406.142 308.323 405.134 308.323 403.576V389.895C308.323 388.337 307.888 387.351 307.017 386.939C306.192 386.481 304.84 386.251 302.961 386.251Z" fill="white"/>
<path d="M356.437 401.994H342.687V407.219H359.53V418.219H328.938V375.252H359.187L357.468 386.251H342.687V392.026H356.437V401.994Z" fill="white"/>
<path d="M403.181 418.219H388.056L382.419 405.432H379.463V418.219H365.714V375.252H387.369C397.222 375.252 402.149 380.27 402.149 390.307C402.149 397.182 400.018 401.719 395.756 403.919L403.181 418.219ZM379.463 386.251V394.845H382.625C384.275 394.845 385.467 394.684 386.2 394.363C386.979 393.997 387.369 393.195 387.369 391.957V389.139C387.369 387.901 386.979 387.122 386.2 386.801C385.467 386.435 384.275 386.251 382.625 386.251H379.463Z" fill="white"/>
<path d="M252.486 402.957L263.004 418.219H275.928V375.252H262.179V391.913L261.256 390.571L261.217 390.514L250.698 375.252H237.774V418.219H251.523V401.331L252.341 402.712L252.486 402.957Z" fill="white"/>
<path d="M201.906 208.332C210.077 208.332 216.701 201.708 216.701 193.537C216.701 185.366 210.077 178.741 201.906 178.741C193.735 178.741 187.11 185.366 187.11 193.537C187.11 201.708 193.735 208.332 201.906 208.332Z" fill="white"/>
<path d="M171.867 263.031C171.867 266.167 169.324 268.71 166.187 268.71C163.051 268.71 160.508 266.167 160.508 263.031C160.508 259.894 163.051 257.352 166.187 257.352C169.324 257.352 171.867 259.894 171.867 263.031Z" fill="white"/>
<path d="M237.624 268.71C234.488 268.71 231.945 266.167 231.945 263.031C231.945 259.894 234.488 257.352 237.624 257.352C240.761 257.352 243.303 259.894 243.303 263.031C243.303 266.167 240.761 268.71 237.624 268.71Z" fill="white"/>
<path fill-rule="evenodd" clip-rule="evenodd" d="M88.0254 291.091C70.9079 268.846 60.1722 245.097 58.8828 227.163C57.0645 201.872 53.6521 143.647 53.6521 116.122C53.6521 104.017 72.4827 87.129 81.7486 82.496C81.7486 57.3885 105.063 39.3052 136.895 42.4436C142.126 21.3712 173.51 0 202.205 0C230.899 0 262.283 21.3712 267.514 42.4436C299.347 39.3052 322.661 57.3885 322.661 82.496C331.927 87.129 350.757 104.017 350.757 116.122C350.757 143.647 347.345 201.872 345.527 227.163C344.23 245.201 333.376 269.122 316.085 291.479C289.538 325.801 247.817 356.437 202.205 356.437C156.421 356.437 114.557 325.57 88.0254 291.091ZM284.249 285.598H301.738C313.395 274.837 331.299 244.26 332.973 227.163C334.647 210.066 337.656 165.241 338.951 144.966C335.847 147.267 331.592 148.827 326.844 149.528C326.787 177.168 325.357 203.994 322.063 225.37C320.152 237.769 314.783 246.7 310.495 253.834C310.38 254.025 310.265 254.215 310.152 254.404C310.046 254.58 309.942 254.754 309.838 254.928C310.104 255.375 310.257 255.897 310.257 256.455V274.09C310.257 275.741 308.918 277.079 307.268 277.079H287.241C285.591 277.079 284.252 278.417 284.252 280.068V285.448C284.252 285.474 284.252 285.5 284.251 285.526C284.251 285.55 284.25 285.574 284.249 285.598ZM302.871 253.466H286.942C285.292 253.466 283.953 252.128 283.953 250.477V249.879C283.953 248.229 285.292 246.89 286.942 246.89H301.439C303.09 246.89 304.428 245.552 304.428 243.901V209.976C304.428 208.326 303.09 206.987 301.439 206.987H283.356C281.705 206.987 280.367 208.326 280.367 209.976V212.069C280.367 213.719 279.028 215.058 277.378 215.058H267.059C269.294 208.289 270.503 201.054 270.503 193.537C270.503 164.571 252.549 139.798 227.163 129.739V127.815C235.253 124.831 242.226 121.213 246.143 118.812C254.363 127.929 277.228 131.217 288.138 127.929C289.863 134.533 293.636 139.515 298.451 143.055C305.51 157.306 310.741 165.551 319.074 176.051C319.063 176.559 319.053 177.062 319.042 177.56C319.029 178.178 319.016 178.789 319.004 179.392L319.003 179.427C318.638 196.986 318.396 208.634 314.74 225.37C312.25 236.765 308.839 244.068 302.871 253.466ZM310.734 148.692C313.367 154.794 315.447 158.773 319.373 164.394L319.634 149.929C316.682 149.834 313.672 149.43 310.734 148.692ZM227.163 117.984C242.85 111.891 252.165 100.061 260.042 87.7268C260.191 95.4981 258.099 104.913 251.672 111.938C263.628 123.296 279.321 122.847 296.059 116.122C296.059 131.366 305.175 141.827 318.327 141.827C332.226 141.827 340.146 131.665 340.146 120.157C340.146 110.742 331.478 102.522 323.109 102.522C312.797 102.522 309.061 105.212 305.923 107.753C309.958 101.327 313.843 92.9615 313.843 85.7839C313.843 68.8961 296.059 50.6633 281.861 50.6633C271.549 50.6633 266.02 51.8589 262.881 53.5029C257.501 32.4305 234.785 9.26586 202.205 9.26586C169.625 9.26586 146.908 32.4305 141.528 53.5029C138.39 51.8589 132.86 50.6633 122.548 50.6633C108.351 50.6633 90.5661 68.8961 90.5661 85.7839C90.5661 92.9615 94.4518 101.327 98.4869 107.753C95.3485 105.212 91.6122 102.522 81.3002 102.522C72.9311 102.522 64.263 110.742 64.263 120.157C64.263 131.665 72.1838 141.827 86.0826 141.827C99.2341 141.827 108.351 131.366 108.351 116.122C125.089 122.847 140.781 123.296 152.737 111.938C146.311 104.913 144.218 95.4981 144.368 87.7268C152.195 99.982 161.441 111.74 176.948 117.867V104.615C176.948 103.789 177.617 103.12 178.442 103.12H185.317C186.142 103.12 186.811 102.451 186.811 101.626V84.5883C186.811 83.7629 186.142 83.0938 185.317 83.0938H184.271C183.445 83.0938 182.776 82.4247 182.776 81.5993V61.1248C182.776 60.2994 183.445 59.6303 184.271 59.6303H219.84C220.665 59.6303 221.334 60.2994 221.334 61.1248V81.5993C221.334 82.4247 220.665 83.0938 219.84 83.0938H218.794C217.968 83.0938 217.299 83.7629 217.299 84.5883V101.626C217.299 102.451 217.968 103.12 218.794 103.12H225.668C226.494 103.12 227.163 103.789 227.163 104.615V117.984ZM202.055 110.593C208.739 110.593 214.397 114.979 216.309 121.031C216.728 122.359 216.967 123.766 216.997 125.225L216.953 126.595C216.823 128.244 216.425 129.817 215.803 131.272C215.356 132.318 214.792 133.304 214.129 134.211C211.411 137.931 207.015 140.347 202.055 140.347C197.095 140.347 192.7 137.931 189.981 134.211C189.302 133.281 188.726 132.269 188.274 131.193C187.663 129.741 187.275 128.173 187.152 126.53L187.152 126.521C187.126 126.173 187.112 125.823 187.11 125.47V125.469C187.118 123.904 187.365 122.395 187.819 120.978C189.746 114.954 195.391 110.593 202.055 110.593ZM119.71 285.518C119.71 285.545 119.711 285.571 119.712 285.598H102.671C91.0144 277.078 73.1104 244.26 71.4366 227.163C69.7627 210.066 66.7538 165.241 65.4586 144.966C68.5627 147.267 72.8179 148.827 77.5658 149.528C77.6226 177.168 79.0522 203.994 82.3464 225.37C84.2572 237.769 89.6262 246.7 93.9148 253.834C94.066 254.085 94.2159 254.335 94.3642 254.582C93.9515 255.094 93.7045 255.746 93.7045 256.455V274.09C93.7045 275.741 95.0427 277.079 96.6935 277.079H116.72C118.37 277.079 119.709 278.417 119.709 280.068V285.448C119.709 285.472 119.709 285.495 119.71 285.518ZM85.0365 164.394L84.7758 149.929C87.7274 149.834 90.7373 149.43 93.6756 148.692C91.0425 154.794 88.9628 158.773 85.0365 164.394ZM85.3354 176.051C93.6682 165.551 98.8998 157.306 105.959 143.055C110.774 139.515 114.547 134.533 116.271 127.929C127.181 131.217 150.047 127.929 158.267 118.812C162.135 121.183 168.985 124.742 176.948 127.704V129.621C151.403 139.603 133.309 164.457 133.309 193.537C133.309 201.054 134.518 208.289 136.752 215.058H126.583C124.933 215.058 123.594 213.719 123.594 212.069V209.976C123.594 208.326 122.256 206.987 120.605 206.987H102.522C100.871 206.987 99.533 208.326 99.533 209.976V243.901C99.533 245.552 100.871 246.89 102.522 246.89H117.019C118.669 246.89 120.008 248.229 120.008 249.879V250.477C120.008 252.128 118.669 253.466 117.019 253.466H101.538C95.5701 244.068 92.1591 236.765 89.6694 225.37C86.013 208.634 85.771 196.986 85.4063 179.427C85.3834 178.326 85.3601 177.202 85.3354 176.051ZM275.588 285.598L275.587 285.573C275.586 285.546 275.585 285.52 275.585 285.493C275.585 285.483 275.584 285.473 275.584 285.463L275.584 285.448V280.068C275.584 278.417 274.246 277.079 272.595 277.079H202.049L202.029 277.079L202.01 277.079L201.992 277.078L201.981 277.078C201.968 277.078 201.954 277.079 201.941 277.079C201.93 277.079 201.918 277.079 201.906 277.079H131.366C129.715 277.079 128.377 278.417 128.377 280.068V285.448C128.377 285.478 128.376 285.508 128.375 285.538C128.375 285.546 128.375 285.554 128.375 285.562C128.374 285.574 128.374 285.586 128.373 285.598H275.588ZM258.861 215.058C261.363 208.41 262.732 201.208 262.732 193.686C262.732 172.039 251.396 153.04 234.336 142.3V151.391C247.055 161.113 255.259 176.442 255.259 193.686C255.259 201.288 253.665 208.517 250.793 215.058C242.922 232.981 225.455 245.735 204.895 246.816C203.955 246.865 203.008 246.89 202.055 246.89C201.052 246.89 200.056 246.863 199.066 246.808C178.571 245.673 161.169 232.937 153.318 215.058C150.445 208.517 148.851 201.288 148.851 193.686C148.851 176.442 157.056 161.113 169.774 151.391V142.3C152.715 153.04 141.379 172.039 141.379 193.686C141.379 201.208 142.748 208.41 145.25 215.058C153.561 237.138 174.377 253.093 199.066 254.29C200.057 254.338 201.053 254.363 202.055 254.363C203.007 254.363 203.954 254.341 204.895 254.297C229.65 253.157 250.533 237.183 258.861 215.058ZM175.514 215.058C181.174 222.077 189.561 226.805 199.066 227.631C200.051 227.717 201.048 227.761 202.055 227.761C203.011 227.761 203.959 227.721 204.895 227.644C214.461 226.855 222.907 222.114 228.596 215.058C233.309 209.213 236.13 201.779 236.13 193.686C236.13 174.868 220.874 159.612 202.055 159.612C183.236 159.612 167.981 174.868 167.981 193.686C167.981 201.779 170.802 209.213 175.514 215.058ZM222.25 144.449L222.231 144.441C222.078 144.378 221.925 144.316 221.771 144.255L221.69 144.223C221.648 144.206 221.606 144.189 221.564 144.173C218.387 142.92 215.061 141.964 211.62 141.34C210.949 141.138 211.022 140.632 211.323 140.313L217.467 134.839C217.909 134.445 218.605 134.581 218.867 135.112L223.112 143.713C223.385 144.169 222.985 144.744 222.25 144.449ZM181.88 144.441C181.129 144.667 180.794 144.173 180.999 143.713L185.244 135.112C185.506 134.581 186.202 134.445 186.645 134.839L192.788 140.313C193.238 140.781 193.088 141.23 192.387 141.359C188.983 141.984 185.691 142.933 182.547 144.173C182.324 144.261 182.101 144.35 181.88 144.441ZM222.824 136.839C222.835 136.908 222.859 136.978 222.897 137.044L226.944 144.074C227.25 144.604 228.06 144.388 228.06 143.776V139.416C228.06 139.07 227.861 138.754 227.547 138.609C226.061 137.92 224.542 137.289 222.994 136.72C222.906 136.687 222.809 136.745 222.824 136.839ZM176.051 139.416V143.776C176.051 144.388 176.862 144.604 177.167 144.074L181.214 137.044C181.253 136.978 181.277 136.908 181.288 136.838C181.302 136.745 181.205 136.687 181.117 136.72C179.569 137.289 178.05 137.919 176.564 138.608C176.25 138.754 176.051 139.07 176.051 139.416ZM142.574 238.82C139.603 238.82 137.194 241.229 137.194 244.2V255.857C137.194 258.829 139.603 261.237 142.574 261.237C145.546 261.237 147.955 258.829 147.955 255.857V244.2C147.955 241.229 145.546 238.82 142.574 238.82ZM166.038 271.4C170.743 271.4 174.557 267.586 174.557 262.881C174.557 258.177 170.743 254.363 166.038 254.363C161.333 254.363 157.519 258.177 157.519 262.881C157.519 267.586 161.333 271.4 166.038 271.4ZM261.237 238.82C264.209 238.82 266.617 241.229 266.617 244.2V255.857C266.617 258.829 264.209 261.237 261.237 261.237C258.266 261.237 255.857 258.829 255.857 255.857V244.2C255.857 241.229 258.266 238.82 261.237 238.82ZM237.774 271.4C233.069 271.4 229.255 267.586 229.255 262.881C229.255 258.177 233.069 254.363 237.774 254.363C242.478 254.363 246.292 258.177 246.292 262.881C246.292 267.586 242.478 271.4 237.774 271.4ZM166.187 304.428C166.187 313.26 159.028 320.419 150.196 320.419C141.365 320.419 134.205 313.26 134.205 304.428C134.205 295.597 141.365 288.437 150.196 288.437C159.028 288.437 166.187 295.597 166.187 304.428ZM253.914 320.419C262.746 320.419 269.905 313.26 269.905 304.428C269.905 295.597 262.746 288.437 253.914 288.437C245.083 288.437 237.923 295.597 237.923 304.428C237.923 313.26 245.083 320.419 253.914 320.419ZM182.328 329.685C182.328 328.2 183.532 326.995 185.018 326.995H189.502C190.987 326.995 192.192 328.2 192.192 329.685V338.652C192.192 340.138 190.987 341.342 189.502 341.342H185.018C183.532 341.342 182.328 340.138 182.328 338.652V329.685ZM199.664 326.995C198.178 326.995 196.974 328.2 196.974 329.685V338.652C196.974 340.138 198.178 341.342 199.664 341.342H204.148C205.633 341.342 206.838 340.138 206.838 338.652V329.685C206.838 328.2 205.633 326.995 204.148 326.995H199.664ZM211.919 329.685C211.919 328.2 213.123 326.995 214.609 326.995H219.092C220.578 326.995 221.783 328.2 221.783 329.685V338.652C221.783 340.138 220.578 341.342 219.092 341.342H214.609C213.123 341.342 211.919 340.138 211.919 338.652V329.685ZM154.53 326.995C153.045 326.995 151.84 328.2 151.84 329.685V331.171C151.84 331.739 152.162 332.259 152.674 332.506C154.884 333.568 157.242 334.58 159.703 335.532C160.671 335.907 161.704 335.185 161.704 334.147V329.685C161.704 328.2 160.5 326.995 159.014 326.995H154.53ZM169.475 326.995C167.99 326.995 166.785 328.2 166.785 329.685V336.931C166.785 337.582 167.205 338.158 167.827 338.351C170.194 339.086 172.606 339.765 175.027 340.381C175.527 340.508 176.086 340.378 176.33 339.924C176.533 339.545 176.649 339.112 176.649 338.652V329.685C176.649 328.2 175.444 326.995 173.959 326.995H169.475ZM244.798 326.995C243.312 326.995 242.108 328.2 242.108 329.685V334.13C242.108 335.175 243.152 335.897 244.123 335.51C246.57 334.535 248.925 333.5 251.145 332.415C251.653 332.167 251.971 331.649 251.971 331.084V329.685C251.971 328.2 250.767 326.995 249.281 326.995H244.798ZM230.152 326.995C228.666 326.995 227.462 328.2 227.462 329.685V338.652C227.462 339.145 227.594 339.606 227.825 340.003C228.08 340.441 228.628 340.558 229.118 340.429C231.533 339.791 233.937 339.086 236.301 338.322C236.913 338.124 237.325 337.552 237.325 336.908V329.685C237.325 328.2 236.121 326.995 234.635 326.995H230.152Z" fill="white"/>
</svg>
