<svg width="402" height="266" viewBox="0 0 402 266" fill="none" xmlns="http://www.w3.org/2000/svg">
<path d="M268.826 48.5H294.501L232.143 158.146L265.5 191.501L347.5 47.3178V0.00157209L244.083 0L154.143 158.143L187.5 191.499L268.826 48.5Z" fill="white"/>
<path d="M93.5 48.5L54.5 0H218.409L109.5 191.499L76.1439 158.143L138.5 48.5H93.5Z" fill="white"/>
<mask id="path-2-outside-1_22_62" maskUnits="userSpaceOnUse" x="0" y="229" width="402" height="37" fill="black">
<rect fill="white" y="229" width="402" height="37"/>
<path d="M4.9604 265H1V230H4.30033L17.5016 247L30.703 230H34.0033V265H30.0429V237L18.8218 251H16.1815L4.9604 237V265Z"/>
<path d="M56.4455 265H52.4851V230H56.4455V265Z"/>
<path d="M78.8878 265H74.9274V230H78.8878V262H98.6898V265H78.8878Z"/>
<path d="M121.132 265H117.172V230H121.132V262H140.934V265H121.132Z"/>
<path d="M163.376 230V233H187.139V230H163.376Z"/>
<path d="M163.376 246V249H181.858V246H163.376Z"/>
<path d="M159.416 265H163.376V262V249V246V233V230H159.416V265Z"/>
<path d="M163.376 262V265H187.139V262H163.376Z"/>
<path d="M209.581 265H205.62V230H209.581L230.043 259V230H234.003V265H230.043L209.581 236V265Z"/>
<path d="M256.446 265H252.485V230H256.446L276.908 259V230H280.868V265H276.908L256.446 236V265Z"/>
<path d="M303.31 265H299.35V230H303.31V265Z"/>
<path d="M345.554 230H349.515V259.5L343.574 265H335.653V262H341.5L345.554 258.5V230Z"/>
<path d="M325.752 230H321.792V259.5L327.733 265H335.653V262H329.5L325.752 258.5V230Z"/>
<path d="M371.957 265H367.997V230H371.297L384.498 247L397.7 230H401V265H397.04V237L385.818 251H383.178L371.957 237V265Z"/>
</mask>
<path d="M4.9604 265H1V230H4.30033L17.5016 247L30.703 230H34.0033V265H30.0429V237L18.8218 251H16.1815L4.9604 237V265Z" fill="white"/>
<path d="M56.4455 265H52.4851V230H56.4455V265Z" fill="white"/>
<path d="M78.8878 265H74.9274V230H78.8878V262H98.6898V265H78.8878Z" fill="white"/>
<path d="M121.132 265H117.172V230H121.132V262H140.934V265H121.132Z" fill="white"/>
<path d="M163.376 230V233H187.139V230H163.376Z" fill="white"/>
<path d="M163.376 246V249H181.858V246H163.376Z" fill="white"/>
<path d="M159.416 265H163.376V262V249V246V233V230H159.416V265Z" fill="white"/>
<path d="M163.376 262V265H187.139V262H163.376Z" fill="white"/>
<path d="M209.581 265H205.62V230H209.581L230.043 259V230H234.003V265H230.043L209.581 236V265Z" fill="white"/>
<path d="M256.446 265H252.485V230H256.446L276.908 259V230H280.868V265H276.908L256.446 236V265Z" fill="white"/>
<path d="M303.31 265H299.35V230H303.31V265Z" fill="white"/>
<path d="M345.554 230H349.515V259.5L343.574 265H335.653V262H341.5L345.554 258.5V230Z" fill="white"/>
<path d="M325.752 230H321.792V259.5L327.733 265H335.653V262H329.5L325.752 258.5V230Z" fill="white"/>
<path d="M371.957 265H367.997V230H371.297L384.498 247L397.7 230H401V265H397.04V237L385.818 251H383.178L371.957 237V265Z" fill="white"/>
<path d="M79.3878 265V262H78.3878V265H79.3878ZM121.632 265V262H120.632V265H121.632ZM163.876 265V262H162.876V265H163.876ZM163.876 262V230H162.876V262H163.876ZM163.876 233V230H162.876V233H163.876ZM163.876 249V246H162.876V249H163.876ZM210.081 236V230H209.081V236H210.081ZM230.543 265V259H229.543V265H230.543ZM256.946 236V230H255.946V236H256.946ZM277.408 265V259H276.408V265H277.408ZM335.153 262V265H336.153V262H335.153ZM1 265H0V266H1V265ZM4.9604 265V266H5.9604V265H4.9604ZM4.9604 237L5.74069 236.375L3.9604 234.153V237H4.9604ZM16.1815 251L15.4012 251.625L15.7015 252H16.1815V251ZM18.8218 251V252H19.3018L19.6021 251.625L18.8218 251ZM34.0033 265V266H35.0033V265H34.0033ZM30.0429 265H29.0429V266H30.0429V265ZM30.0429 237H31.0429V234.153L29.2626 236.375L30.0429 237ZM1 230V229H0V230H1ZM4.30033 230L5.09015 229.387L4.78989 229H4.30033V230ZM17.5016 247L16.7118 247.613L17.5016 248.63L18.2915 247.613L17.5016 247ZM30.703 230V229H30.2134L29.9131 229.387L30.703 230ZM34.0033 230H35.0033V229H34.0033V230ZM52.4851 265H51.4851V266H52.4851V265ZM56.4455 265V266H57.4455V265H56.4455ZM56.4455 230H57.4455V229H56.4455V230ZM52.4851 230V229H51.4851V230H52.4851ZM74.9274 265H73.9274V266H74.9274V265ZM74.9274 230V229H73.9274V230H74.9274ZM78.8878 230H79.8878V229H78.8878V230ZM78.8878 262H77.8878V263H78.8878V262ZM98.6898 262H99.6898V261H98.6898V262ZM98.6898 265V266H99.6898V265H98.6898ZM117.172 265H116.172V266H117.172V265ZM117.172 230V229H116.172V230H117.172ZM121.132 230H122.132V229H121.132V230ZM121.132 262H120.132V263H121.132V262ZM140.934 262H141.934V261H140.934V262ZM140.934 265V266H141.934V265H140.934ZM159.416 265H158.416V266H159.416V265ZM159.416 230V229H158.416V230H159.416ZM163.376 262H162.376V263H163.376V262ZM187.139 262H188.139V261H187.139V262ZM187.139 265V266H188.139V265H187.139ZM163.376 233V232H162.376V233H163.376ZM187.139 230H188.139V229H187.139V230ZM187.139 233V234H188.139V233H187.139ZM163.376 249V248H162.376V249H163.376ZM163.376 246H162.376V247H163.376V246ZM181.858 246H182.858V245H181.858V246ZM181.858 249V250H182.858V249H181.858ZM205.62 265H204.62V266H205.62V265ZM209.581 265V266H210.581V265H209.581ZM234.003 265V266H235.003V265H234.003ZM230.043 265L229.226 265.577L229.525 266H230.043V265ZM205.62 230V229H204.62V230H205.62ZM209.581 230L210.398 229.423L210.099 229H209.581V230ZM230.043 230V229H229.043V230H230.043ZM234.003 230H235.003V229H234.003V230ZM209.581 236L210.398 235.423L208.581 232.848V236H209.581ZM230.043 259L229.226 259.577L231.043 262.152V259H230.043ZM252.485 265H251.485V266H252.485V265ZM256.446 265V266H257.446V265H256.446ZM280.868 265V266H281.868V265H280.868ZM276.908 265L276.091 265.577L276.389 266H276.908V265ZM252.485 230V229H251.485V230H252.485ZM256.446 230L257.263 229.423L256.964 229H256.446V230ZM276.908 230V229H275.908V230H276.908ZM280.868 230H281.868V229H280.868V230ZM256.446 236L257.263 235.423L255.446 232.848V236H256.446ZM276.908 259L276.091 259.577L277.908 262.152V259H276.908ZM299.35 265H298.35V266H299.35V265ZM303.31 265V266H304.31V265H303.31ZM303.31 230H304.31V229H303.31V230ZM299.35 230V229H298.35V230H299.35ZM321.792 230V229H320.792V230H321.792ZM325.752 230H326.752V229H325.752V230ZM325.752 258.5H324.752V258.934L325.07 259.231L325.752 258.5ZM329.5 262L328.817 262.731L329.106 263H329.5V262ZM327.733 265L327.053 265.734L327.341 266H327.733V265ZM321.792 259.5H320.792V259.937L321.113 260.234L321.792 259.5ZM349.515 230H350.515V229H349.515V230ZM345.554 230V229H344.554V230H345.554ZM345.554 258.5L346.208 259.257L346.554 258.958V258.5H345.554ZM341.5 262V263H341.872L342.153 262.757L341.5 262ZM343.574 265V266H343.966L344.254 265.734L343.574 265ZM349.515 259.5L350.194 260.234L350.515 259.937V259.5H349.515ZM367.997 265H366.997V266H367.997V265ZM371.957 265V266H372.957V265H371.957ZM371.957 237L372.737 236.375L370.957 234.153V237H371.957ZM383.178 251L382.398 251.625L382.698 252H383.178V251ZM385.818 251V252H386.299L386.599 251.625L385.818 251ZM401 265V266H402V265H401ZM397.04 265H396.04V266H397.04V265ZM397.04 237H398.04V234.153L396.259 236.375L397.04 237ZM367.997 230V229H366.997V230H367.997ZM371.297 230L372.087 229.387L371.787 229H371.297V230ZM384.498 247L383.709 247.613L384.498 248.63L385.288 247.613L384.498 247ZM397.7 230V229H397.21L396.91 229.387L397.7 230ZM401 230H402V229H401V230ZM1 266H4.9604V264H1V266ZM5.9604 265V237H3.9604V265H5.9604ZM4.1801 237.625L15.4012 251.625L16.9618 250.375L5.74069 236.375L4.1801 237.625ZM16.1815 252H18.8218V250H16.1815V252ZM34.0033 264H30.0429V266H34.0033V264ZM31.0429 265V237H29.0429V265H31.0429ZM29.2626 236.375L18.0415 250.375L19.6021 251.625L30.8232 237.625L29.2626 236.375ZM2 265V230H0V265H2ZM1 231H4.30033V229H1V231ZM3.51051 230.613L16.7118 247.613L18.2915 246.387L5.09015 229.387L3.51051 230.613ZM30.703 231H34.0033V229H30.703V231ZM35.0033 265V230H33.0033V265H35.0033ZM18.2915 247.613L31.4928 230.613L29.9131 229.387L16.7118 246.387L18.2915 247.613ZM52.4851 266H56.4455V264H52.4851V266ZM57.4455 265V230H55.4455V265H57.4455ZM53.4851 265V230H51.4851V265H53.4851ZM52.4851 231H56.4455V229H52.4851V231ZM74.9274 266H78.8878V264H74.9274V266ZM75.9274 265V230H73.9274V265H75.9274ZM74.9274 231H78.8878V229H74.9274V231ZM79.8878 262V230H77.8878V262H79.8878ZM78.8878 263H98.6898V261H78.8878V263ZM97.6898 262V265H99.6898V262H97.6898ZM98.6898 264H78.8878V266H98.6898V264ZM117.172 266H121.132V264H117.172V266ZM118.172 265V230H116.172V265H118.172ZM117.172 231H121.132V229H117.172V231ZM122.132 262V230H120.132V262H122.132ZM121.132 263H140.934V261H121.132V263ZM139.934 262V265H141.934V262H139.934ZM140.934 264H121.132V266H140.934V264ZM159.416 266H163.376V264H159.416V266ZM160.416 265V230H158.416V265H160.416ZM159.416 231H163.376V229H159.416V231ZM163.376 263H187.139V261H163.376V263ZM186.139 262V265H188.139V262H186.139ZM187.139 264H163.376V266H187.139V264ZM163.376 231H187.139V229H163.376V231ZM186.139 230V233H188.139V230H186.139ZM187.139 232H163.376V234H187.139V232ZM163.376 247H181.858V245H163.376V247ZM180.858 246V249H182.858V246H180.858ZM181.858 248H163.376V250H181.858V248ZM164.376 262V249H162.376V262H164.376ZM164.376 246V233H162.376V246H164.376ZM205.62 266H209.581V264H205.62V266ZM234.003 264H230.043V266H234.003V264ZM206.62 265V230H204.62V265H206.62ZM205.62 231H209.581V229H205.62V231ZM230.043 231H234.003V229H230.043V231ZM235.003 265V230H233.003V265H235.003ZM210.581 265V236H208.581V265H210.581ZM230.86 264.423L210.398 235.423L208.764 236.577L229.226 265.577L230.86 264.423ZM231.043 259V230H229.043V259H231.043ZM208.764 230.577L229.226 259.577L230.86 258.423L210.398 229.423L208.764 230.577ZM252.485 266H256.446V264H252.485V266ZM280.868 264H276.908V266H280.868V264ZM253.485 265V230H251.485V265H253.485ZM252.485 231H256.446V229H252.485V231ZM276.908 231H280.868V229H276.908V231ZM281.868 265V230H279.868V265H281.868ZM257.446 265V236H255.446V265H257.446ZM277.725 264.423L257.263 235.423L255.628 236.577L276.091 265.577L277.725 264.423ZM277.908 259V230H275.908V259H277.908ZM255.628 230.577L276.091 259.577L277.725 258.423L257.263 229.423L255.628 230.577ZM299.35 266H303.31V264H299.35V266ZM304.31 265V230H302.31V265H304.31ZM300.35 265V230H298.35V265H300.35ZM299.35 231H303.31V229H299.35V231ZM321.792 231H325.752V229H321.792V231ZM324.752 230V258.5H326.752V230H324.752ZM325.07 259.231L328.817 262.731L330.183 261.269L326.435 257.769L325.07 259.231ZM329.5 263H335.653V261H329.5V263ZM335.653 264H327.733V266H335.653V264ZM328.412 264.266L322.471 258.766L321.113 260.234L327.053 265.734L328.412 264.266ZM322.792 259.5V230H320.792V259.5H322.792ZM349.515 229H345.554V231H349.515V229ZM344.554 230V258.5H346.554V230H344.554ZM344.901 257.743L340.847 261.243L342.153 262.757L346.208 259.257L344.901 257.743ZM341.5 261H335.653V263H341.5V261ZM335.653 266H343.574V264H335.653V266ZM344.254 265.734L350.194 260.234L348.835 258.766L342.895 264.266L344.254 265.734ZM350.515 259.5V230H348.515V259.5H350.515ZM367.997 266H371.957V264H367.997V266ZM372.957 265V237H370.957V265H372.957ZM371.177 237.625L382.398 251.625L383.959 250.375L372.737 236.375L371.177 237.625ZM383.178 252H385.818V250H383.178V252ZM401 264H397.04V266H401V264ZM398.04 265V237H396.04V265H398.04ZM396.259 236.375L385.038 250.375L386.599 251.625L397.82 237.625L396.259 236.375ZM368.997 265V230H366.997V265H368.997ZM367.997 231H371.297V229H367.997V231ZM370.507 230.613L383.709 247.613L385.288 246.387L372.087 229.387L370.507 230.613ZM397.7 231H401V229H397.7V231ZM402 265V230H400V265H402ZM385.288 247.613L398.49 230.613L396.91 229.387L383.709 246.387L385.288 247.613Z" fill="white" mask="url(#path-2-outside-1_22_62)"/>
</svg>
